<svg xmlns="http://www.w3.org/2000/svg" xmlns:xlink="http://www.w3.org/1999/xlink" width="261.722" height="26.993" viewBox="0 0 261.722 26.993">
  <defs>
    <clipPath id="clip-path">
      <path id="Path_7" data-name="Path 7" d="M72.933,247.348a3.6,3.6,0,0,0-.423.522c-.033.047-.06.094-.088.142l-.016.026a4.243,4.243,0,0,0-.21.4c-.033.071-.065.138-.091.212a3.831,3.831,0,0,0-.133.45c-.007.029-.036.128-.04.147l-.057.791a1.823,1.823,0,0,0,.018.193l.013.117c0,.04.006.08.009.119v.019l.015.019,0,.17a5.392,5.392,0,0,1-5.313,5.462h-.283a.529.529,0,0,1-.109-.008l-.061-.008c-.11-.014-.215-.028-.313-.032l-.826.06-.145.042a3.418,3.418,0,0,0-.44.128c-.071.027-.141.059-.212.091a4.35,4.35,0,0,0-.4.21c-.061.036-.119.071-.173.108a3.651,3.651,0,1,0,4.647,5.592,3.808,3.808,0,0,0,.422-.519c.039-.057.075-.119.113-.181a3.931,3.931,0,0,0,.2-.385l.011-.023c.029-.066.058-.129.082-.2a3.571,3.571,0,0,0,.134-.459s.032-.108.036-.126l.06-.8a1.668,1.668,0,0,0-.016-.186c0-.043-.01-.087-.013-.122s-.008-.083-.011-.126a1.126,1.126,0,0,0-.013-.125l-.008-.04v-.041a5.387,5.387,0,0,1,5.313-5.463H74.8l.07.007H74.9a.479.479,0,0,1,.108.009c.123.016.253.034.371.039l.812-.056.058-.016c.028-.008.057-.018.093-.026a3.553,3.553,0,0,0,.446-.132c.073-.027.142-.058.215-.091a4.3,4.3,0,0,0,.385-.2l.064-.04c.04-.024.079-.047.12-.075a3.612,3.612,0,0,0,.518-5.59,3.655,3.655,0,0,0-5.17,0" transform="translate(-62.076 -246.276)" fill="#0065e8"/>
    </clipPath>
    <clipPath id="clip-path-2">
      <path id="Path_8" data-name="Path 8" d="M56.066,247.346a3.511,3.511,0,0,0-.422.519c-.04.056-.073.115-.108.173a4.1,4.1,0,0,0-.212.4,1.989,1.989,0,0,0-.089.213,3.562,3.562,0,0,0-.136.459l-.015.051c-.005.02-.012.038-.016.059l-.063.817a1.846,1.846,0,0,0,.02.209l.009.082c.006.047.01.094.013.14a1.139,1.139,0,0,0,.012.118l.008.043v.042a5.394,5.394,0,0,1-5.321,5.463h-.21l-.037-.007h-.032a.648.648,0,0,1-.1-.009l-.046-.006c-.118-.015-.228-.028-.331-.033l-.814.056-.056.016-.093.025a3.89,3.89,0,0,0-.446.132c-.074.029-.144.06-.212.091-.126.058-.26.129-.4.206-.06.036-.117.071-.18.114a3.363,3.363,0,0,0-.515.418,3.653,3.653,0,0,0,2.584,6.238h0a3.583,3.583,0,0,0,3-1.578c.042-.062.082-.128.116-.183.078-.136.147-.268.211-.408.032-.067.06-.132.088-.206a3.835,3.835,0,0,0,.133-.452c.008-.029.034-.119.038-.135l.058-.782v-.02a1.576,1.576,0,0,0-.013-.166c-.006-.049-.012-.1-.013-.128-.005-.047-.009-.093-.013-.14a1.17,1.17,0,0,0-.013-.119l-.008-.041v-.042a5.394,5.394,0,0,1,5.319-5.464h.211l.042.008h.029a.624.624,0,0,1,.1.009l.073.009c.106.013.208.027.3.031l.821-.058.059-.017.088-.025a3.429,3.429,0,0,0,.443-.131c.069-.026.141-.058.212-.091a4.132,4.132,0,0,0,.395-.209c.058-.034.116-.069.177-.11a3.429,3.429,0,0,0,.515-.419,3.654,3.654,0,0,0-5.167-5.168" transform="translate(-45.206 -246.276)" fill="#0065e8"/>
    </clipPath>
    <clipPath id="clip-path-3">
      <path id="Path_9" data-name="Path 9" d="M80.051,264.082a3.656,3.656,0,1,0,2.586-1.071,3.656,3.656,0,0,0-2.586,1.071" transform="translate(-78.982 -263.011)" fill="#0065e8"/>
    </clipPath>
    <clipPath id="clip-path-4">
      <path id="Path_10" data-name="Path 10" d="M46.111,230.768A3.655,3.655,0,1,0,48.7,229.7a3.655,3.655,0,0,0-2.589,1.068" transform="translate(-45.042 -229.696)" fill="#0065e8"/>
    </clipPath>
    <clipPath id="clip-path-5">
      <path id="Path_11" data-name="Path 11" d="M79.775,230.584a3.655,3.655,0,1,0,2.585-1.072,3.655,3.655,0,0,0-2.585,1.072" transform="translate(-78.707 -229.512)" fill="#0065e8"/>
    </clipPath>
    <clipPath id="clip-path-6">
      <path id="Path_12" data-name="Path 12" d="M56.064,230.479a3.543,3.543,0,0,0-.417.512c-.036.053-.067.1-.1.159l-.012.02a4.189,4.189,0,0,0-.209.4c-.033.071-.066.14-.091.209a3.782,3.782,0,0,0-.135.463s-.03.1-.035.12v.015l-.005.018-.055.767a1.818,1.818,0,0,0,.019.2l.012.113c0,.038.006.075.009.112a1.147,1.147,0,0,0,.012.135l.008.039v.04a5.389,5.389,0,0,1-5.312,5.463H49.54l-.036-.006h-.036a.534.534,0,0,1-.108-.008h-.026c-.122-.017-.237-.032-.346-.036l-.827.059-.051.015-.092.026a3.472,3.472,0,0,0-.438.128c-.075.027-.144.059-.215.091a4.386,4.386,0,0,0-.393.206c-.062.038-.125.075-.18.113a3.651,3.651,0,1,0,4.651,5.589,3.452,3.452,0,0,0,.42-.517c.038-.056.073-.116.111-.178a3.929,3.929,0,0,0,.207-.394c.033-.073.067-.144.094-.213a3.774,3.774,0,0,0,.132-.459l.02-.071c.006-.022.013-.042.018-.063l.058-.8c0-.061-.009-.12-.015-.182-.006-.043-.011-.087-.014-.12s-.008-.085-.011-.128a.822.822,0,0,0-.014-.125l-.006-.04v-.041a5.39,5.39,0,0,1,5.314-5.464h.284a.482.482,0,0,1,.1.008l.05.006c.115.015.225.029.327.033l.811-.056.057-.016.1-.026a3.554,3.554,0,0,0,.447-.132c.07-.026.139-.057.212-.091a4.058,4.058,0,0,0,.391-.206l.026-.015a1.423,1.423,0,0,0,.154-.1,3.5,3.5,0,0,0,.515-.417,3.655,3.655,0,0,0-5.17-5.168" transform="translate(-45.207 -229.407)" fill="#0065e8"/>
    </clipPath>
  </defs>
  <g id="mimocodes_logo" data-name="mimocodes logo" transform="translate(0)">
    <g id="Group_30" data-name="Group 30" transform="translate(-628.868 -509.198)">
      <g id="Group_29" data-name="Group 29" transform="translate(628.872 509.21)">
        <g id="Group_28" data-name="Group 28">
          <g id="Group_17" data-name="Group 17" transform="translate(9.964 9.867)" clip-path="url(#clip-path)">
            <rect id="Rectangle_8" data-name="Rectangle 8" width="24.411" height="24.385" transform="matrix(0.742, -0.67, 0.67, 0.742, -8.505, 7.674)" fill="#0065e8"/>
          </g>
          <g id="Group_19" data-name="Group 19" transform="translate(0.096 9.867)">
            <g id="Group_18" data-name="Group 18" clip-path="url(#clip-path-2)">
              <rect id="Rectangle_9" data-name="Rectangle 9" width="24.413" height="24.387" transform="translate(-8.505 7.674) rotate(-42.065)" fill="#0065e8"/>
            </g>
          </g>
          <g id="Group_21" data-name="Group 21" transform="translate(19.853 19.656)">
            <g id="Group_20" data-name="Group 20" clip-path="url(#clip-path-3)">
              <rect id="Rectangle_10" data-name="Rectangle 10" width="10.586" height="10.56" transform="matrix(0.742, -0.67, 0.67, 0.742, -3.635, 3.28)" fill="#0065e8"/>
            </g>
          </g>
          <g id="Group_23" data-name="Group 23" transform="translate(0 0.169)">
            <g id="Group_22" data-name="Group 22" clip-path="url(#clip-path-4)">
              <rect id="Rectangle_11" data-name="Rectangle 11" width="10.323" height="10.323" transform="matrix(0.742, -0.67, 0.67, 0.742, -3.635, 3.28)" fill="#0065e8"/>
            </g>
          </g>
          <g id="Group_25" data-name="Group 25" transform="translate(19.692 0.061)">
            <g id="Group_24" data-name="Group 24" clip-path="url(#clip-path-5)">
              <rect id="Rectangle_12" data-name="Rectangle 12" width="10.85" height="10.798" transform="translate(-3.992 3.281) rotate(-42.066)" fill="#0065e8"/>
            </g>
          </g>
          <g id="Group_27" data-name="Group 27" transform="translate(0.097)">
            <g id="Group_26" data-name="Group 26" clip-path="url(#clip-path-6)">
              <rect id="Rectangle_13" data-name="Rectangle 13" width="24.412" height="24.386" transform="translate(-8.505 7.674) rotate(-42.064)" fill="#0065e8"/>
            </g>
          </g>
        </g>
      </g>
    </g>
    <path id="Path_13" data-name="Path 13" d="M193.748-21.678a12.835,12.835,0,0,1-4.506,3.515,13.594,13.594,0,0,1-5.8,1.208A13.589,13.589,0,0,1,178.085-18a13.3,13.3,0,0,1-4.272-2.848,13.3,13.3,0,0,1-2.848-4.272,13.5,13.5,0,0,1-1.045-5.317,13.5,13.5,0,0,1,1.045-5.317,13.3,13.3,0,0,1,2.848-4.272,13.3,13.3,0,0,1,4.272-2.848,13.589,13.589,0,0,1,5.353-1.045,12.991,12.991,0,0,1,5.461,1.081,12.706,12.706,0,0,1,4.2,3.136l-3.425,3.316a9.153,9.153,0,0,0-2.65-2.127,7.482,7.482,0,0,0-3.551-.793,9.084,9.084,0,0,0-3.389.631,8.206,8.206,0,0,0-2.758,1.784A8.419,8.419,0,0,0,175.47-34.1a9.41,9.41,0,0,0-.685,3.659,9.409,9.409,0,0,0,.685,3.659,8.419,8.419,0,0,0,1.856,2.794,8.206,8.206,0,0,0,2.758,1.784,9.084,9.084,0,0,0,3.389.631,8.113,8.113,0,0,0,3.839-.883,9.441,9.441,0,0,0,2.974-2.5ZM209.5-16.956A13.589,13.589,0,0,1,204.148-18a13.158,13.158,0,0,1-4.272-2.866,13.273,13.273,0,0,1-2.83-4.29,13.609,13.609,0,0,1-1.027-5.281,13.609,13.609,0,0,1,1.027-5.281,13.273,13.273,0,0,1,2.83-4.29,13.158,13.158,0,0,1,4.272-2.866A13.589,13.589,0,0,1,209.5-43.92a13.589,13.589,0,0,1,5.353,1.045,13.158,13.158,0,0,1,4.272,2.866,13.273,13.273,0,0,1,2.83,4.29,13.609,13.609,0,0,1,1.027,5.281,13.609,13.609,0,0,1-1.027,5.281,13.272,13.272,0,0,1-2.83,4.29A13.158,13.158,0,0,1,214.854-18a13.589,13.589,0,0,1-5.354,1.044Zm0-4.614a8.727,8.727,0,0,0,3.371-.649,8.487,8.487,0,0,0,2.74-1.8,8.2,8.2,0,0,0,1.838-2.794,9.533,9.533,0,0,0,.667-3.623,9.533,9.533,0,0,0-.667-3.623,8.2,8.2,0,0,0-1.838-2.794,8.487,8.487,0,0,0-2.74-1.8A8.728,8.728,0,0,0,209.5-39.3a8.727,8.727,0,0,0-3.371.649,8.487,8.487,0,0,0-2.74,1.8,8.2,8.2,0,0,0-1.838,2.794,9.533,9.533,0,0,0-.667,3.623,9.533,9.533,0,0,0,.667,3.623,8.2,8.2,0,0,0,1.838,2.794,8.487,8.487,0,0,0,2.74,1.8,8.727,8.727,0,0,0,3.371.649Zm17.411-21.773h8.724a15.347,15.347,0,0,1,5.515.937,11.9,11.9,0,0,1,4.182,2.65,11.516,11.516,0,0,1,2.65,4.091,14.388,14.388,0,0,1,.919,5.227,14.492,14.492,0,0,1-.919,5.263,11.338,11.338,0,0,1-2.65,4.073,12.034,12.034,0,0,1-4.182,2.632,15.347,15.347,0,0,1-5.515.937h-8.724Zm8.507,21.2a10.862,10.862,0,0,0,3.749-.595,7.323,7.323,0,0,0,2.7-1.676,6.873,6.873,0,0,0,1.622-2.614,10.181,10.181,0,0,0,.541-3.407,10.181,10.181,0,0,0-.541-3.407,6.872,6.872,0,0,0-1.622-2.614,7.323,7.323,0,0,0-2.7-1.676,10.862,10.862,0,0,0-3.749-.6h-3.641v16.582ZM257.7-38.729v5.984h10.346v4.614H257.7v5.984h11.5v4.614H252.831v-25.81H269.2v4.614Zm23.864,21.773a10.667,10.667,0,0,1-3.172-.469,9.164,9.164,0,0,1-2.776-1.406,9.729,9.729,0,0,1-2.2-2.289,11.081,11.081,0,0,1-1.478-3.154l4.578-1.8a6.99,6.99,0,0,0,1.766,3.226,4.45,4.45,0,0,0,3.316,1.28,5.352,5.352,0,0,0,1.46-.2,4.325,4.325,0,0,0,1.262-.577,2.8,2.8,0,0,0,.883-.955,2.674,2.674,0,0,0,.324-1.334,3.205,3.205,0,0,0-.252-1.3,3.035,3.035,0,0,0-.847-1.081,7.52,7.52,0,0,0-1.55-.973,23.415,23.415,0,0,0-2.361-.973l-1.586-.577a12.2,12.2,0,0,1-2.109-.973,9.239,9.239,0,0,1-1.929-1.478,7.288,7.288,0,0,1-1.424-2.037,6.08,6.08,0,0,1-.559-2.65,6.789,6.789,0,0,1,.6-2.83,6.917,6.917,0,0,1,1.694-2.307,7.944,7.944,0,0,1,2.632-1.55,9.883,9.883,0,0,1,3.407-.559,9.785,9.785,0,0,1,3.371.523,8.289,8.289,0,0,1,2.415,1.334,7.426,7.426,0,0,1,1.6,1.784,8.6,8.6,0,0,1,.9,1.838l-4.29,1.8a4.568,4.568,0,0,0-1.316-1.947,3.749,3.749,0,0,0-2.614-.865,4.448,4.448,0,0,0-2.632.739,2.263,2.263,0,0,0-1.045,1.929,2.443,2.443,0,0,0,1.009,1.965,11,11,0,0,0,3.208,1.568l1.622.541a18.584,18.584,0,0,1,2.83,1.244,8.868,8.868,0,0,1,2.2,1.676,6.818,6.818,0,0,1,1.406,2.217,7.828,7.828,0,0,1,.487,2.866,7.056,7.056,0,0,1-.811,3.479,7.438,7.438,0,0,1-2.073,2.4,9.014,9.014,0,0,1-2.848,1.406,10.912,10.912,0,0,1-3.1.469Z" transform="translate(-28.67 43.932)" fill="#fff"/>
    <path id="Path_14" data-name="Path 14" d="M4.32-43.343H9.114l7.9,13.662H17.3l7.9-13.662h4.83v25.811h-4.83V-30.258l.288-4.326h-.288L18.631-23.012h-2.92l-6.6-11.572H8.826l.288,4.326v12.725H4.32Zm30.894,0H40.08v25.811H35.214Zm10.058,0h4.794L57.96-29.681h.288l7.9-13.662h4.83v25.811h-4.83V-30.258l.288-4.326h-.288L59.582-23.012h-2.92l-6.6-11.572h-.288l.288,4.326v12.725H45.271ZM88.025-16.956A13.589,13.589,0,0,1,82.671-18,13.158,13.158,0,0,1,78.4-20.867a13.273,13.273,0,0,1-2.83-4.29,13.609,13.609,0,0,1-1.027-5.281,13.609,13.609,0,0,1,1.027-5.281,13.273,13.273,0,0,1,2.83-4.29,13.158,13.158,0,0,1,4.272-2.866,13.589,13.589,0,0,1,5.353-1.045,13.589,13.589,0,0,1,5.353,1.045,13.158,13.158,0,0,1,4.272,2.866,13.273,13.273,0,0,1,2.83,4.29,13.609,13.609,0,0,1,1.027,5.281,13.609,13.609,0,0,1-1.027,5.281,13.273,13.273,0,0,1-2.83,4.29A13.158,13.158,0,0,1,93.378-18a13.589,13.589,0,0,1-5.353,1.044Zm0-4.614a8.727,8.727,0,0,0,3.371-.649,8.487,8.487,0,0,0,2.74-1.8,8.2,8.2,0,0,0,1.838-2.794,9.533,9.533,0,0,0,.667-3.623,9.533,9.533,0,0,0-.667-3.623,8.2,8.2,0,0,0-1.838-2.794,8.487,8.487,0,0,0-2.74-1.8,8.727,8.727,0,0,0-3.371-.649,8.727,8.727,0,0,0-3.371.649,8.487,8.487,0,0,0-2.74,1.8,8.2,8.2,0,0,0-1.838,2.794,9.533,9.533,0,0,0-.667,3.623,9.533,9.533,0,0,0,.667,3.623,8.2,8.2,0,0,0,1.838,2.794,8.487,8.487,0,0,0,2.74,1.8,8.727,8.727,0,0,0,3.371.649Z" transform="translate(37.436 43.932)" fill="#0065e8"/>
  </g>
</svg>
