<svg xmlns="http://www.w3.org/2000/svg" width="80" height="80.001" viewBox="0 0 80 80.001"><defs><style>.a{fill:#003b65;}</style></defs><path class="a" d="M66.024,60.166l-12.77-3.191-.737-2.948A42.306,42.306,0,0,0,66.06,49.791a1.665,1.665,0,0,0,.807-1.332,1.688,1.688,0,0,0-.637-1.426c-.06-.04-6.017-4.956-6.017-21.988,0-14.365-3.363-21.649-10-21.649h-1a10.672,10.672,0,0,0-9-3.33c-6.263,0-20,6.291-20,24.979,0,17.032-5.957,21.948-6,21.982a1.665,1.665,0,0,0,.14,2.761,41.5,41.5,0,0,0,13.553,4.25l-.737,2.941L14.4,60.169A18.694,18.694,0,0,0,.214,78.334,1.666,1.666,0,0,0,1.881,80H78.547a1.666,1.666,0,0,0,1.667-1.665A18.694,18.694,0,0,0,66.024,60.166Z" transform="translate(-0.214 0.001)"/></svg>