<svg xmlns="http://www.w3.org/2000/svg" width="80.002" height="80" viewBox="0 0 80.002 80"><defs><style>.a{fill:#003b65;}</style></defs><path class="a" d="M79.958,77.932l-2-8a11.617,11.617,0,0,0-7.617-8.264L55.674,56.782c-3.577-1.49-5.213-7.25-5.567-9.437a13.86,13.86,0,0,0,4.9-9.01,2.717,2.717,0,0,1,.4-1.717,1.666,1.666,0,0,0,1.143-1,24.914,24.914,0,0,0,1.787-7.283,1.6,1.6,0,0,0-.05-.4A4.287,4.287,0,0,0,56.674,25.5V16.667c0-5.37-1.64-7.573-3.367-8.85C52.977,5.23,50.207,0,40.007,0A17.381,17.381,0,0,0,23.34,16.667V25.5a4.287,4.287,0,0,0-1.617,2.427,1.6,1.6,0,0,0-.05.4,24.915,24.915,0,0,0,1.787,7.287,1.417,1.417,0,0,0,1,.957c.187.093.537.577.537,1.757a13.857,13.857,0,0,0,4.927,9.027c-.35,2.183-1.977,7.94-5.453,9.394l-14.8,4.913a11.617,11.617,0,0,0-7.613,8.257l-2,8A1.667,1.667,0,0,0,1.673,80H78.341a1.667,1.667,0,0,0,1.617-2.07Z" transform="translate(-0.006)"/></svg>