<svg xmlns="http://www.w3.org/2000/svg" width="20.154" height="24" viewBox="0 0 20.154 24"><defs><style>.a{fill:#fff;}</style></defs><g transform="translate(-1651.881 -1819.893)"><path class="a" d="M1657.274,1841.846a4.448,4.448,0,0,1,.4-1.895,4.174,4.174,0,0,1,.844-1.2l.221-4.027,6.464.421a1.353,1.353,0,0,0-1.139-1.539l-4.939-.749-2.084-.381a5.728,5.728,0,0,1-.519,1.478,4.949,4.949,0,0,1-.534.826,3.348,3.348,0,0,1-.514-.826,6.793,6.793,0,0,1-.491-1.492,7.951,7.951,0,0,0-2.574.906,1.462,1.462,0,0,0-.524,1.2s0,.058,0,.14c0,.01,0,.021,0,.031l.63,6.323a.854.854,0,0,0,.784.784h.318l.515,9.649h3.69l.054-1.014-.355-.161v-4.675l.607.217.072-1.316a4.188,4.188,0,0,1-.384-.525,4.142,4.142,0,0,1-.538-2.178" transform="translate(0 -7.606)"/><path class="a" d="M1658.421,1824.01a1.2,1.2,0,0,0,1.954,0,2.984,2.984,0,0,0,.511-1.092c.551-.579.3-.92.3-.92-.043-.055-.1-.044-.145-.007a4.956,4.956,0,0,0,.091-.641,1.452,1.452,0,0,0-1.485-1.456,1.467,1.467,0,0,0-1.084.309s-.893.035-.893,1.252a1.78,1.78,0,0,0,.047.528.089.089,0,0,0-.134.015s-.264.356.34.96a2.916,2.916,0,0,0,.5,1.052" transform="translate(-3.411 0)"/><path class="a" d="M1679.571,1859.013a4.279,4.279,0,0,1-.075-1.391,4.567,4.567,0,0,1,.075-1.41.728.728,0,0,1,1.321,0,4.546,4.546,0,0,1,.076,1.41,4.259,4.259,0,0,1-.076,1.391.716.716,0,0,1-1.321,0m-1.773.366a2.708,2.708,0,0,0,4.867,0,5.042,5.042,0,0,0,.17-1.758,5.1,5.1,0,0,0-.17-1.776,2.723,2.723,0,0,0-4.867,0,4.645,4.645,0,0,0-.17,1.776,4.588,4.588,0,0,0,.17,1.758m-5.452-6.135a.644.644,0,0,1-.661-.421,13.257,13.257,0,0,1,0-2.82.728.728,0,0,1,1.321,0,13.193,13.193,0,0,1,0,2.82.644.644,0,0,1-.66.421m0,1.447a2.415,2.415,0,0,0,2.434-1.5,9.392,9.392,0,0,0,0-3.553,2.723,2.723,0,0,0-4.868,0,9.379,9.379,0,0,0,0,3.553,2.415,2.415,0,0,0,2.434,1.5m-.755,6.061c-.057.091-.019.183.094.183h1.566a.308.308,0,0,0,.3-.183l7.452-12.489c.057-.091.038-.183-.075-.183h-1.585a.308.308,0,0,0-.3.183Z" transform="translate(-10.8 -17.044)"/></g></svg>