<svg xmlns="http://www.w3.org/2000/svg" width="15.31" height="21.842" viewBox="0 0 15.31 21.842"><defs><style>.a{fill:#fff;}</style></defs><g transform="translate(-1433.613 -829.968)"><path class="a" d="M1438.521,851.077a4.044,4.044,0,0,1,.36-1.724,3.783,3.783,0,0,1,.768-1.088l.2-3.664,5.881.383a1.231,1.231,0,0,0-1.036-1.4l-4.494-.681-1.9-.346a5.222,5.222,0,0,1-.472,1.344,4.5,4.5,0,0,1-.486.752,3.04,3.04,0,0,1-.467-.752,6.188,6.188,0,0,1-.447-1.358,7.237,7.237,0,0,0-2.341.825,1.329,1.329,0,0,0-.477,1.091s0,.053,0,.127c0,.01,0,.019,0,.029l.573,5.752a.778.778,0,0,0,.714.713h.289l.469,8.779h3.357l.05-.922-.323-.147v-4.253l.552.2.065-1.2a3.907,3.907,0,0,1-.349-.478,3.769,3.769,0,0,1-.489-1.982" transform="translate(0 -8.049)"/><path class="a" d="M1440.072,833.714a1.089,1.089,0,0,0,1.778,0,2.715,2.715,0,0,0,.464-.994c.5-.527.273-.836.273-.836-.039-.051-.087-.04-.132-.006a4.473,4.473,0,0,0,.082-.583,1.471,1.471,0,0,0-2.337-1.043s-.813.032-.813,1.139a1.622,1.622,0,0,0,.043.48.081.081,0,0,0-.122.014s-.24.324.309.873a2.658,2.658,0,0,0,.454.958" transform="translate(-3.613)"/><path class="a" d="M1455.657,863.849v-2.074a2.617,2.617,0,0,1,1.032.359.8.8,0,0,1,.337.7q0,.839-1.369,1.015m-1.754-4.513a2.825,2.825,0,0,1-1.07-.374.8.8,0,0,1-.353-.707.865.865,0,0,1,.309-.678,2.082,2.082,0,0,1,1.114-.358Zm5.214,2.008a2.767,2.767,0,0,0-.872-.91,4.191,4.191,0,0,0-1.214-.53,13.279,13.279,0,0,0-1.374-.292v-2.45a12.1,12.1,0,0,1,3.166.618V855.6a9.121,9.121,0,0,0-1.528-.381,15.186,15.186,0,0,0-1.638-.182v-1.1H1453.9v1.136a7.2,7.2,0,0,0-1.6.353,3.942,3.942,0,0,0-1.208.668,2.8,2.8,0,0,0-.761.983,3.028,3.028,0,0,0-.265,1.3,2.768,2.768,0,0,0,.342,1.456,2.7,2.7,0,0,0,.888.9,4.239,4.239,0,0,0,1.23.513,13.681,13.681,0,0,0,1.378.27v2.416q-.561-.011-1.037-.061t-.9-.132q-.43-.083-.838-.2c-.273-.077-.552-.167-.839-.27v2.162a6.382,6.382,0,0,0,1.583.446,15.172,15.172,0,0,0,2.035.194v1.081h1.754v-1.136a5.278,5.278,0,0,0,2.808-1,2.708,2.708,0,0,0,.988-2.217,2.793,2.793,0,0,0-.337-1.446" transform="translate(-10.53 -15.338)"/></g></svg>