<svg xmlns="http://www.w3.org/2000/svg" width="15.356" height="22.188" viewBox="0 0 15.356 22.188"><defs><style>.a{fill:#fff;}</style></defs><g transform="translate(-1430.854 -690.16)"><path class="a" d="M1449.9,693.349a.927.927,0,0,0,1.513,0,2.263,2.263,0,0,0,.387-.815c.467-.468.263-.743.263-.743a.069.069,0,0,0-.1-.011,1.4,1.4,0,0,0,.037-.409c0-.943-.692-.97-.692-.97a1.253,1.253,0,0,0-1.989.888,3.763,3.763,0,0,0,.07.5c-.038-.028-.079-.038-.112.005,0,0-.2.263.232.712a2.323,2.323,0,0,0,.4.847" transform="translate(-12.132 0)"/><path class="a" d="M1430.854,732.211l.068,2.578,1.481-.763,2.566,1.322a2.43,2.43,0,0,1,1.245-1.395l-1.834-.945,1.482-.763Z" transform="translate(0 -27.771)"/><path class="a" d="M1435.272,745.8l-2.869,1.477-1.481-.763-.068,2.579,5.007-.035-1.482-.763,2.653-1.366a3.363,3.363,0,0,1-1.761-1.129" transform="translate(0 -36.746)"/><path class="a" d="M1461.535,735.348l2.567-1.322,1.481.763.068-2.578-5.007.035,1.481.763-1.834.944a2.433,2.433,0,0,1,1.245,1.395" transform="translate(-19.44 -27.771)"/><path class="a" d="M1462.509,747.278l-2.869-1.478a3.36,3.36,0,0,1-1.761,1.129l2.653,1.366-1.481.763,5.007.035-.068-2.579Z" transform="translate(-17.848 -36.746)"/><path class="a" d="M1449.374,708.772a.661.661,0,0,0,.607-.607l.488-4.9c0-.008,0-.016,0-.024,0-.064,0-.108,0-.108a1.134,1.134,0,0,0-.405-.928,6.182,6.182,0,0,0-1.994-.7,5.236,5.236,0,0,1-.38,1.156,2.582,2.582,0,0,1-.4.639,3.825,3.825,0,0,1-.413-.639,4.444,4.444,0,0,1-.4-1.144,6.015,6.015,0,0,0-1.941.69,1.134,1.134,0,0,0-.405.928s0,.046,0,.109c0,.008,0,.016,0,.024l.488,4.9a.639.639,0,0,0,.607.607h.247l.4,7.474h2.858l.4-7.474Z" transform="translate(-8.768 -7.493)"/></g></svg>