<svg xmlns="http://www.w3.org/2000/svg" width="28.421" height="18.413" viewBox="0 0 28.421 18.413"><defs><style>.a{fill:#fff;}</style></defs><g transform="translate(-1418.446 -563.296)"><path class="a" d="M1477.742,571.611l-3.925-7.572a.614.614,0,0,0-.809-.256l-2.163,1.121a.6.6,0,0,0-.256.808l3.925,7.572a.6.6,0,0,0,.534.325.6.6,0,0,0,.276-.067l2.163-1.122a.6.6,0,0,0,.256-.808" transform="translate(-30.943 -0.252)"/><path class="a" d="M1425.411,564.481l-2.164-1.121a.612.612,0,0,0-.808.256l-3.925,7.573a.6.6,0,0,0,.256.808l2.163,1.122a.606.606,0,0,0,.275.068.6.6,0,0,0,.533-.324l3.925-7.572a.6.6,0,0,0-.256-.809"/><path class="a" d="M1448.028,577.347l.785-.724v-.176l-3.3-6.607s-1.924-.971-6.664.1c0,0-2.817.471-4.416-.25a1.935,1.935,0,0,0-1.714.075s-1.028.8.266,2.116a7.706,7.706,0,0,0,5.35,1.58l1.846.017a5.367,5.367,0,0,1,2.951.878l3.719,2.665a.258.258,0,0,0,.018.026l1.446,1.353a1.1,1.1,0,0,1-1.5,1.608l-1.544-1.445,0,0-.178-.166a.286.286,0,0,0-.39.417l1.418,1.327a1.014,1.014,0,0,1-1.384,1.481l-1.442-1.351-.007.008-.327-.307a.286.286,0,0,0-.391.417l1.318,1.234a.964.964,0,0,1-1.316,1.409l-1.381-1.293-.005,0-.114-.107a.286.286,0,0,0-.39.417l1.039.973a.926.926,0,0,1-.6,1.6.939.939,0,0,1-.663-.249l-1.117-1.045s-.007,0-.01-.007a1.189,1.189,0,0,0-1.7-1.079,1.341,1.341,0,0,0,.02-.171,1.36,1.36,0,0,0-1.969-1.25c0-.036.012-.07.012-.107a1.369,1.369,0,0,0-1.37-1.393.714.714,0,0,1-.794-1.181,1.37,1.37,0,0,0-1.939-.032l-.069.068a3.372,3.372,0,0,1-.876-1.37l-.021-.123-1.362-.887-.312.479,1.085.707.1.1a4.39,4.39,0,0,0,.982,1.5l-.4.392a2.437,2.437,0,0,1,1.057,2.837,2.644,2.644,0,0,1,2.34,2.332,1.368,1.368,0,0,0,1.936.034l.009-.008a1.2,1.2,0,0,0,2.027.866l.881-.843a1.205,1.205,0,0,0,.19-.247l.91.851a1.491,1.491,0,0,0,2.514-1.078,1.526,1.526,0,0,0,2.183-1.4A1.574,1.574,0,0,0,1447,580.77a1.669,1.669,0,0,0,1.705-2.791Z" transform="translate(-6.237 -3.649)"/></g></svg>