<svg xmlns="http://www.w3.org/2000/svg" width="21.615" height="24" viewBox="0 0 21.615 24"><defs><style>.a{fill:#fff;}</style></defs><g transform="translate(-1427.554 -237.844)"><path class="a" d="M1459.893,250.258a24.494,24.494,0,0,0-7.441-3.049h-.016a21.047,21.047,0,0,0-4.764,1.647,2.527,2.527,0,0,1,.438.966,21.623,21.623,0,0,1,4.333-1.534h0v15.282c-2.884-.715-4.469-3.181-5.342-5.8a1.852,1.852,0,0,1-.619.472l-.043.812c1.058,2.6,2.876,4.931,6,5.6l.008,0,.008,0c8.01-1.71,7.441-14.4,7.441-14.4" transform="translate(-10.733 -4.681)"/><path class="a" d="M1434.025,241.761a1.139,1.139,0,0,0,1.86,0,2.8,2.8,0,0,0,.475-1c.574-.574.323-.913.323-.913a.086.086,0,0,0-.128-.014,1.7,1.7,0,0,0,.046-.5c0-1.158-.85-1.192-.85-1.192a1.4,1.4,0,0,0-1.031-.295,1.381,1.381,0,0,0-1.412,1.386,4.6,4.6,0,0,0,.086.61c-.047-.035-.1-.047-.138.007,0,0-.24.323.285.875a2.854,2.854,0,0,0,.485,1.04" transform="translate(-3.521)"/><path class="a" d="M1435.34,252.585c0-.01,0-.019,0-.03,0-.078,0-.132,0-.132a1.393,1.393,0,0,0-.5-1.141,7.59,7.59,0,0,0-2.449-.862,6.466,6.466,0,0,1-.467,1.42,3.181,3.181,0,0,1-.489.786,4.718,4.718,0,0,1-.508-.786,5.449,5.449,0,0,1-.493-1.405,7.4,7.4,0,0,0-2.384.848,1.393,1.393,0,0,0-.5,1.141s0,.055,0,.133a.226.226,0,0,0,0,.029l.6,6.015a.784.784,0,0,0,.746.746h.3l.49,9.18h3.511l.489-9.18h.3a.812.812,0,0,0,.746-.746Z" transform="translate(0 -6.682)"/></g></svg>