<svg xmlns="http://www.w3.org/2000/svg" width="24.826" height="24" viewBox="0 0 24.826 24"><defs><style>.a{fill:#fff;}</style></defs><g transform="translate(-489 -692)"><g transform="translate(489 695.453)"><path class="a" d="M1240.865,1848.351a.647.647,0,1,0-.646-.646.647.647,0,0,0,.646.646" transform="translate(-1226.149 -1839.798)"/><path class="a" d="M1218,1838.387a3.033,3.033,0,0,0,4.954,0,7.477,7.477,0,0,0,1.264-2.667c1.529-1.531.86-2.432.86-2.432a.224.224,0,0,0-.337-.039,4.531,4.531,0,0,0,.119-1.337c0-3.085-2.265-3.174-2.265-3.174a3.72,3.72,0,0,0-2.747-.785s-3.763.018-3.763,3.692a12.2,12.2,0,0,0,.231,1.626c-.126-.094-.26-.125-.37.018,0,0-.638.861.76,2.329a7.574,7.574,0,0,0,1.293,2.771" transform="translate(-1211.102 -1827.951)"/><path class="a" d="M1221.153,1861.63c-1.291-.951-3.97-1.664-5.917-2.084a11.508,11.508,0,0,1-2.309,5.329,12.462,12.462,0,0,1-2.421-5.3,17.876,17.876,0,0,0-5.76,2.05,3.361,3.361,0,0,0-1.2,2.756,3.663,3.663,0,0,0,.241,1.458s1.462,2.114,9.166,2.315c7.7-.2,9.167-2.315,9.167-2.315a3.659,3.659,0,0,0,.24-1.458,3.361,3.361,0,0,0-1.2-2.756" transform="translate(-1203.543 -1847.61)"/></g><g transform="translate(503.54 692)"><path class="a" d="M1253.689,1824.989a.149.149,0,0,1-.075.02.146.146,0,0,1-.127-.073,1.464,1.464,0,0,0-.64-.585.147.147,0,1,1,.126-.266,1.76,1.76,0,0,1,.768.7.148.148,0,0,1-.053.2m-1.388-1.546a2.138,2.138,0,0,0-1.629,3.523l.055.063c.3.336.466.517.5.549a1.4,1.4,0,0,1,.322.56h1.5a1.378,1.378,0,0,1,.3-.545c.051-.047.219-.228.514-.56l.033-.038.025-.029a2.138,2.138,0,0,0-1.629-3.523" transform="translate(-1247.158 -1821.654)"/><path class="a" d="M1253.9,1839.372a.206.206,0,0,0,.206.206h.33v.246h.341v-.232l.33-.014a.206.206,0,0,0,.206-.206v-.234H1253.9Z" transform="translate(-1249.461 -1831.328)"/><path class="a" d="M1249.552,1824.474l-.07.08c-.445.5-.519.568-.543.59a.747.747,0,0,0-.169.41v1.27a.8.8,0,0,1-.606.772.522.522,0,0,1-.457.27h-.466a.526.526,0,0,1-.46-.271.8.8,0,0,1-.6-.771v-1.265a.73.73,0,0,0-.185-.43c-.006,0-.076-.066-.53-.578l-.068-.077a2.728,2.728,0,1,1,4.157,0m-2.078-5.694a5.138,5.138,0,0,0-4.045,8.312,1.406,1.406,0,1,0,2.16,1.613,5.141,5.141,0,1,0,1.885-9.924" transform="translate(-1242.331 -1818.78)"/></g><rect class="a" width="1.412" height="0.442" transform="translate(508.025 698.935)"/></g></svg>