<svg xmlns="http://www.w3.org/2000/svg" width="14.579" height="24" viewBox="0 0 14.579 24"><defs><style>.a{fill:#fff;}</style></defs><g transform="translate(-899 -51)"><path class="a" d="M1664.116,243.388h6.658v-4.574h-2.316v1.715h-2.026v-1.715h-2.316v1.715h-2.026v-1.715h-2.316v4.574h4.342Z" transform="translate(-758.899 -187.814)"/><g transform="translate(899 56.279)"><path class="a" d="M1660.931,253.741h8.684a1.151,1.151,0,0,0,1.158-1.143v-1.143h-11V252.6a1.151,1.151,0,0,0,1.158,1.143" transform="translate(-1657.915 -251.454)"/><path class="a" d="M1668.632,291.927h-12.292a1.144,1.144,0,0,0-1.144,1.144v1.143h14.579v-1.143a1.144,1.144,0,0,0-1.144-1.144" transform="translate(-1655.197 -275.493)"/><path class="a" d="M1670.571,271.763a1.144,1.144,0,0,0-1.144-1.144h-.441c-2.744-4.361-1.8-9.867-1.58-10.717h-4.819c.218.85,1.164,6.355-1.58,10.717h-.441a1.144,1.144,0,0,0-1.143,1.144v.572h11.149Z" transform="translate(-1657.706 -256.472)"/></g></g></svg>