<svg xmlns="http://www.w3.org/2000/svg" width="23.41" height="24" viewBox="0 0 23.41 24"><defs><style>.a{fill:#fff;}</style></defs><g transform="translate(-636 -624.775)"><g transform="translate(636 628.072)"><path class="a" d="M1475.412,1841.772l-1.27-2.2-1.193.689a10.571,10.571,0,0,1,1.252,2.209Z" transform="translate(-1453.458 -1835.834)"/><path class="a" d="M1426.665,1840.261l-1.193-.689-1.269,2.2,1.21.7a10.6,10.6,0,0,1,1.252-2.209" transform="translate(-1424.203 -1835.835)"/><path class="a" d="M1446.631,1840.629a10.016,10.016,0,0,0-8.461-9.614v-.793h-3.1v.793a10.016,10.016,0,1,0,5.9,18.915l-.864-1.789a8.03,8.03,0,1,1,4.53-7.512H1442.2l3.424,3.96,3.424-3.96Z" transform="translate(-1425.641 -1830.222)"/></g><g transform="translate(645.593 634.059)"><path class="a" d="M1447.928,1854.722a1.491,1.491,0,1,0,1.491-1.491,1.491,1.491,0,0,0-1.491,1.491" transform="translate(-1447.928 -1850.124)"/><path class="a" d="M1455,1849.253l2.748-3.773-3.866,2.616a3.438,3.438,0,0,1,1.117,1.157" transform="translate(-1451.497 -1845.48)"/></g><rect class="a" width="4.396" height="2.822" transform="translate(644.796 624.775)"/></g></svg>