<svg xmlns="http://www.w3.org/2000/svg" width="22.221" height="24" viewBox="0 0 22.221 24"><defs><style>.a{fill:#fff;}</style></defs><g transform="translate(-597 -81)"><g transform="translate(597 81)"><path class="a" d="M1217.866,251.576l-4.731-.756-2-.385a6.009,6.009,0,0,1-.5,1.493,4.986,4.986,0,0,1-.511.834,3.4,3.4,0,0,1-.492-.834,7.132,7.132,0,0,1-.47-1.508,7.359,7.359,0,0,0-2.465.916,1.5,1.5,0,0,0-.5,1.211s0,.059,0,.141c0,.011,0,.021,0,.032l.6,6.39a.841.841,0,0,0,.751.792h.3l.493,9.752h3.535l.082-1.629.422-8.123.374-7.2,6.191.425a1.359,1.359,0,0,0-1.091-1.555" transform="translate(-1206.202 -245.655)"/><path class="a" d="M1212.705,241.788a1.146,1.146,0,0,0,1.872,0,2.867,2.867,0,0,0,.488-1.047c.529-.555.287-.881.287-.881-.041-.053-.092-.042-.139-.006a4.654,4.654,0,0,0,.087-.615,1.391,1.391,0,0,0-1.422-1.4,1.406,1.406,0,0,0-1.038.3s-.856.034-.856,1.2a1.7,1.7,0,0,0,.045.506.086.086,0,0,0-.128.014s-.253.341.326.919a2.8,2.8,0,0,0,.478,1.008" transform="translate(-1209.708 -237.844)"/></g><g transform="translate(606.951 87.312)"><rect class="a" width="3.201" height="6.935" transform="translate(0 10.67)"/><rect class="a" width="3.201" height="12.27" transform="translate(4.534 5.335)"/><rect class="a" width="3.201" height="17.605" transform="translate(9.069)"/></g></g></svg>